Patient4_TMGait_0pt4_02_left_05_EMG.mot
version=1
nRows=30
nColumns=33
inDegrees=no
endheader
time	1LAddLong	2LGlutMax	3LGlutMed	4LIliopsoas	5LSemiMemb	6LBicFemLong	7LRecFem	8LVastMed	9LVastLat	10LGasMed	11LTibAnt	12lTibPost	13LPeroneusLong	14LSol	15LExtDigLong	16LFlexDigLong	17RAddLong	18RGlutMax	19RGlutMed	20RIliopsoas	21RSemiMemb	22RBicFemLong	23RRecFem	24RVastMed	25RVastLat	26RGasMed	27RTibAnt	28RTibPost	29RPeroneusLong	30RSol	31RExtDigLong	32RFlexDigLong
7.62	0.009918	0.076141	-0.12161	-0.010376	0.11139	-0.027618	-0.062561	0.006561	-0.04425	0.2533	-0.03006	0.00946	0.06424	-0.093689	-0.005188	-0.37186	0.016327	0.20493	0.2272	-0.070496	0.29434	-0.012207	-0.20309	-0.11734	-0.009308	0.002289	-0.089264	0.002594	-0.015106	-0.076294	0.001984	-0.007782
7.621	0.011444	0.077515	-0.10849	0.007629	0.062256	0.01358	-0.072784	0.001221	-0.042572	0.062256	-0.005035	0.01709	0.02243	0.060883	0.000916	0.26977	0.036469	0.14801	-0.10483	0.07309	0.1918	-0.032654	-0.15961	-0.22171	-0.021057	-0.001831	-0.28534	0.002289	-0.017395	-0.00412	0.008698	-0.008698
7.622	0.006561	0.12283	-0.098572	-0.006104	0.039063	-0.005341	-0.074158	0.006714	-0.041809	-0.28503	0.015106	-0.009155	-0.007019	0.20691	0.03067	0.099182	0.06073	0.12833	0.090942	0.17181	0.27817	-0.14038	-0.13321	-0.2562	-0.030365	-0.006714	-0.18265	0.001526	0.023956	-0.012665	0.001526	-0.005798
7.623	0.005646	0.086365	-0.1004	0.014496	0.027313	-0.009308	-0.085754	0.007935	-0.028076	-1.1063	0.026703	-0.032806	-0.027771	0.22659	0.010681	-0.028687	0.047302	0.12665	0.60379	0.14648	0.10086	-0.10513	-0.19272	-0.12573	-0.005646	-0.003204	-0.31311	0.003204	0.042419	0.041656	-0.00061	-0.009613
7.624	0.002594	0.094299	-0.10819	0.000763	0.021973	-0.004578	-0.082092	0.00946	-0.040741	-1.3152	0.01236	0.065765	-0.0354	-0.003967	-0.001678	0.039368	0.011139	-0.002747	0.38528	0.074921	-0.007019	-0.001678	-0.24307	-0.004272	0.02655	0.003357	-0.49057	0.003662	0.046082	0.040436	0.000305	-0.003357
7.625	0.004425	0.13016	-0.067902	0.014191	0.013123	0.006409	-0.09491	0.004272	-0.037994	-0.6282	0.012817	-0.040741	-0.048981	0.15427	-0.028076	0.10605	-0.066223	-0.002899	0.023346	0.030823	0.17181	0.023193	-0.29984	0.15228	0.06897	-0.003357	-0.28183	0.002136	0.055847	0.059052	0.001068	-0.010529
7.626	-0.001373	0.11261	-0.011139	0.010529	-0.00061	0.019073	-0.10284	0.006104	-0.039673	-0.30716	0.016785	-0.041656	-0.021667	0.17349	-0.014496	-0.10315	-0.085297	-0.006104	-0.094147	0.008392	0.45654	0.012207	-0.33661	0.18402	0.13214	0.000916	0.030365	0.000458	0.053406	0.087891	0.001068	-0.009613
7.627	-0.002594	0.11993	-0.020447	0.013733	-0.023346	0.049591	-0.10086	0.005341	-0.03418	-0.25787	0.013733	0.021362	0.002899	0.25467	0.084991	0.17746	-0.022736	-0.11322	-0.023651	0.01709	0.69916	-0.033417	-0.25406	0.16281	0.13534	0.00061	-0.002136	-0.000916	0.040283	0.088348	0.001373	-0.011292
7.628	0.000763	0.11169	-0.06073	0.005951	-0.032654	0.070038	-0.0914	0.009918	-0.030518	-0.19501	0.003357	0.018158	-0.005951	-0.057678	0.050507	0.032501	0.046692	-0.089417	0.019836	0.020447	0.65887	-0.071106	-0.12375	-0.005646	0.077057	-0.005035	-0.14297	0.003815	0.056763	0.065002	0	-0.005646
7.629	-0.009766	0.10559	0.005493	0.00946	-0.031891	0.099792	-0.099792	0.01236	-0.025787	-0.17731	-0.021057	-0.00824	0.001984	-0.28381	0.002441	-0.024719	0.067444	-0.16129	-0.078888	0.000153	0.43106	-0.043182	-0.078735	-0.09903	0.052185	-0.005188	-0.086975	0.001984	0.020752	0.000763	-0.000916	-0.002899
7.63	-0.000458	0.1178	-0.027008	-0.015564	0.000763	0.043945	-0.089874	0.006866	0.005493	-0.10986	0.090485	-0.014801	-0.015259	-0.1976	-0.002136	-0.072021	0.054474	-0.17014	-0.12497	0.005798	0.42358	-0.0354	-0.088501	-0.076752	0.057678	0.000916	-0.018616	0.003967	-0.009918	-0.011292	0	-0.003204
7.631	-0.000916	0.12329	-0.038452	0.005798	-0.039215	0.035706	-0.084381	0.007935	-0.016174	0.055847	0.18112	-0.019684	-0.049744	-0.13947	0.016785	-0.19501	0.027466	-0.25589	-0.20126	0.009918	0.27832	0.003204	-0.052338	-0.11871	0.059662	-0.000916	0.066681	0.000916	0.033722	-0.002899	0.000153	-0.004578
7.632	0.025635	0.17639	-0.056152	0.002441	-0.011749	-0.023346	-0.099487	0.009918	-0.010376	0.21149	0.1268	-0.019531	-0.029449	-0.12161	0.006714	0.68863	0.010834	-0.22125	-0.18829	-0.012054	0.089111	0.015564	-0.030823	-0.16342	0.053864	-0.005341	0.16663	0.002899	-0.025024	-0.021973	0.001831	-0.016022
7.633	0.030823	0.15747	-0.073853	0.021057	0.041809	-0.033264	-0.1004	0.004425	-0.024109	0.22263	-0.062866	-0.023651	0.026093	-0.067444	-0.002136	0.027771	0.016632	-0.29144	0.016174	-0.019226	0.2594	-0.050049	0.079803	-0.19073	0.017395	0.002594	0.22919	0.000916	-0.037231	-0.046844	0.002289	-0.01236
7.634	-0.008698	0.15503	0.001068	0.013123	0.078888	-0.048218	-0.10803	0.004578	-0.055389	0.30029	-0.15595	-0.014191	0.022278	0.010223	0.038605	0.39856	0.00824	-0.36255	0.081024	-0.045471	0.30792	-0.04837	0.00412	-0.23117	0.021667	-0.005341	0.18845	0.001678	-0.040741	-0.034637	-0.000916	-0.016174
7.635	0.069122	0.15427	0.045929	0.014648	0.066833	-0.053864	-0.10407	0.009155	-0.062256	0.41306	-0.089264	0.18784	-0.058441	0.077667	0.050201	0.040283	-0.003815	-0.41885	0.019073	-0.031281	0.34454	-0.005951	-0.04837	-0.18433	0.02594	-0.000916	0.11749	0.002289	-0.038605	-0.041351	0.001831	-0.005493
7.636	0.027924	0.17471	0.02655	0.012665	0.009003	-0.024872	-0.084991	0.003815	-0.060577	0.48477	-0.042572	0.28107	-0.039978	0.03418	0.04303	0.44006	-0.001526	-0.4393	-0.088348	-0.024719	0.34668	-0.007629	-0.23056	-0.18265	0.049591	-0.003052	-0.10361	-0.002594	-0.007935	-0.054321	0.000763	-0.011902
7.637	0.00351	0.1561	0.00885	0.010986	-0.011749	0.045471	-0.09552	0.006714	-0.073853	-0.34393	-0.020752	-0.2269	-0.007935	0.016022	0.020294	0.14008	-0.003967	-0.48508	-0.18601	-0.03418	0.3688	-0.028687	-0.32928	-0.14084	0.064392	-0.006714	0.30563	-0.003052	-0.055695	-0.060883	0.000153	-0.013123
7.638	0.002289	0.16785	-0.008545	0.008392	-0.024567	0.074615	-0.11292	0.00473	-0.06546	-0.54596	-0.024109	-0.02533	0.003662	0.070343	0.01358	0.088806	0.00824	-0.45105	-0.16434	-0.073853	0.34241	-0.022583	-0.23727	-0.1799	0.040283	-0.010376	0.60333	0.002441	-0.084229	-0.053558	-0.001373	-0.020447
7.639	0.005188	0.20172	-0.028839	0.016785	-0.035095	0.065613	-0.1506	0.00885	0.085754	-0.17487	-0.014191	-0.011444	0.046539	-0.011139	0.001831	0.058594	0.013123	-0.47943	-0.16525	-0.013885	0.30655	0.001526	-0.14877	-0.22217	0.019989	-0.007935	0.7637	-0.00061	-0.1236	-0.070343	0.00061	-0.016479
7.64	-0.00061	0.21683	-0.027008	0.014496	-0.062408	0.15411	-0.16296	0.002289	0.097961	0.006714	-0.018158	-0.066681	0.08316	-0.13031	-0.007629	-0.20935	0.006409	-0.47989	-0.16754	0.069885	0.31738	-0.002594	-0.14633	-0.1387	-0.007935	0.006409	0.85251	-0.000458	-0.096893	-0.078125	-0.002441	-0.011749
7.641	0.005646	0.25436	-0.058594	-0.005493	-0.069885	0.14526	-0.16327	0.001984	0.050354	-0.1796	-0.001373	-0.061493	0.08667	-0.15701	0.005188	0.23025	0.007629	-0.52292	-0.13275	0.12451	0.34561	-0.000458	-0.15381	-0.13611	0.035706	-0.005035	0.74905	-0.000916	-0.050812	-0.10132	0	-0.014954
7.642	0.012054	0.23575	-0.10773	0.01297	-0.072174	0.14358	-0.18265	-0.001526	0.032654	-0.045776	0.002747	-0.036469	0.035248	-0.31067	-0.018311	-0.075073	0.014343	-0.55206	-0.18662	0.037537	0.30655	-0.019989	-0.21011	-0.094147	0.14984	0.006104	-0.22644	0.001068	0.080719	-0.12375	-0.000916	-0.005798
7.643	0.022125	0.22629	-0.016937	0.000153	0.033569	-0.003662	-0.18265	-0.005493	0.02533	0.010071	0.007477	-0.012817	0.004883	-0.21011	-0.010834	-0.008698	0.034485	-0.56488	-0.48355	0.012665	0.28534	-0.074463	-0.16373	-0.07309	0.16403	0.009155	-1.5739	-0.000458	0.18433	-0.11169	-0.002136	-0.00473
7.644	0.021057	0.18997	0.19424	-0.005493	0.083313	-0.076447	-0.16052	0.002594	0.005188	-0.1152	0.009155	0.006256	0.010834	0.10544	0.007172	0.19287	0.05722	-0.6192	-0.43701	-0.029602	0.16876	-0.043182	0.025482	-0.18753	0.086365	-0.00412	-1.0011	-0.00351	0.032043	-0.080566	0.00061	-0.002594
7.645	0.01297	0.17044	0.16495	0.009308	0.045013	-0.14908	-0.12772	0.007324	-0.017548	-0.050964	-0.001068	-0.00946	-0.014191	0.059204	0.023499	-0.033417	0.06424	-0.53436	0.36316	0.037079	0.009613	-0.033722	0.1178	-0.15701	0.054626	-0.005341	-0.32135	-0.006561	-0.070648	-0.050507	0.001526	-0.010223
7.646	0.014343	0.18341	0.10956	0.021057	0.023956	-0.25162	-0.16052	0.005341	-0.003967	0.32272	0.003967	-0.021667	-0.063019	0.081177	-0.009766	-0.050964	0.063629	-0.54016	0.56351	0.086517	0.084534	-0.088501	0.11154	-0.09613	0.1535	0.00351	-0.074005	-0.006866	-0.088348	-0.055847	0.000305	-0.005493
7.647	0.019073	0.23392	0.076141	0.013123	0.035095	-0.24658	-0.14755	0.003967	-0.00412	0.30106	0.010834	-0.02594	-0.091705	-0.068207	-0.015869	-0.03952	0.054779	-0.59235	0.45578	0.10269	0.046539	-0.044556	0.083313	-0.059052	0.14282	-0.002136	-0.005951	-0.002594	-0.035095	-0.04364	-0.001068	-0.002899
7.648	0.017853	0.19562	0.043182	0.014648	0.042419	-0.16129	-0.16403	-0.001678	0.005493	-0.027313	-0.000153	-0.013275	-0.09613	-0.1593	0.005951	0.008698	0.030212	-0.65231	0.54062	0.000458	0.10056	0.028229	-0.052185	-0.10162	0.10956	-0.002594	-0.13168	-0.00473	0.010071	-0.057068	0.000153	-0.008545
7.649	0.014343	0.14786	0.010681	0.019836	0.054321	-0.087585	-0.14084	0.00473	0.015564	-0.45822	0.002899	-0.006561	-0.1268	-0.011292	0.003357	-0.002747	0.026245	-0.63904	0.29068	-0.1004	0.22079	0.042725	-0.16083	-0.030212	0.035095	-0.001984	-0.14877	-0.007935	-0.037079	-0.062866	-0.002136	-0.009613
